<svg width="86" height="32" viewBox="0 0 86 32" fill="none" xmlns="http://www.w3.org/2000/svg">
<rect x="0.5" y="0.5" width="85" height="31" rx="15.5" fill="white"/>
<rect x="0.5" y="0.5" width="85" height="31" rx="15.5" stroke="#7126B5"/>
<g clip-path="url(#clip0_162_15101)">
<path fill-rule="evenodd" clip-rule="evenodd" d="M9.66675 8.49935C9.66675 8.03911 10.0398 7.66602 10.5001 7.66602H25.5001C25.9603 7.66602 26.3334 8.03911 26.3334 8.49935V10.6542C26.3334 11.0962 26.1578 11.5201 25.8453 11.8327L20.5001 17.1779V21.8327C20.5001 22.1483 20.3217 22.4369 20.0394 22.578L16.7061 24.2447C16.4478 24.3739 16.141 24.3601 15.8953 24.2082C15.6496 24.0564 15.5001 23.7882 15.5001 23.4994V17.1779L10.1549 11.8327C9.84234 11.5201 9.66675 11.0962 9.66675 10.6542V8.49935ZM11.3334 9.33268V10.6542L16.9227 16.2434C17.079 16.3997 17.1667 16.6117 17.1667 16.8327V22.151L18.8334 21.3177V16.8327C18.8334 16.6117 18.9212 16.3997 19.0775 16.2434L24.6667 10.6542V9.33268H11.3334Z" fill="#8A8A8A"/>
</g>
<path d="M43.7079 10.848V12.032H38.8599V15.792H42.7959V16.976H38.8599V22H37.4039V10.848H43.7079ZM46.2184 11.808C45.941 11.808 45.7064 11.712 45.5144 11.52C45.3224 11.328 45.2264 11.0933 45.2264 10.816C45.2264 10.5387 45.3224 10.304 45.5144 10.112C45.7064 9.92 45.941 9.824 46.2184 9.824C46.485 9.824 46.709 9.92 46.8904 10.112C47.0824 10.304 47.1784 10.5387 47.1784 10.816C47.1784 11.0933 47.0824 11.328 46.8904 11.52C46.709 11.712 46.485 11.808 46.2184 11.808ZM46.9224 13.232V22H45.4664V13.232H46.9224ZM50.8599 10.16V22H49.4039V10.16H50.8599ZM55.1174 14.432V19.6C55.1174 20.0267 55.208 20.3307 55.3894 20.512C55.5707 20.6827 55.8854 20.768 56.3334 20.768H57.4054V22H56.0934C55.2827 22 54.6747 21.8133 54.2694 21.44C53.864 21.0667 53.6614 20.4533 53.6614 19.6V14.432H52.5254V13.232H53.6614V11.024H55.1174V13.232H57.4054V14.432H55.1174ZM67.1695 17.28C67.1695 17.5573 67.1535 17.8507 67.1215 18.16H60.1135C60.1668 19.024 60.4602 19.7013 60.9935 20.192C61.5375 20.672 62.1935 20.912 62.9615 20.912C63.5908 20.912 64.1135 20.768 64.5295 20.48C64.9562 20.1813 65.2548 19.7867 65.4255 19.296H66.9935C66.7588 20.1387 66.2895 20.8267 65.5855 21.36C64.8815 21.8827 64.0068 22.144 62.9615 22.144C62.1295 22.144 61.3828 21.9573 60.7215 21.584C60.0708 21.2107 59.5588 20.6827 59.1855 20C58.8122 19.3067 58.6255 18.5067 58.6255 17.6C58.6255 16.6933 58.8068 15.8987 59.1695 15.216C59.5322 14.5333 60.0388 14.0107 60.6895 13.648C61.3508 13.2747 62.1082 13.088 62.9615 13.088C63.7935 13.088 64.5295 13.2693 65.1695 13.632C65.8095 13.9947 66.3002 14.496 66.6415 15.136C66.9935 15.7653 67.1695 16.48 67.1695 17.28ZM65.6655 16.976C65.6655 16.4213 65.5428 15.9467 65.2975 15.552C65.0522 15.1467 64.7162 14.8427 64.2895 14.64C63.8735 14.4267 63.4095 14.32 62.8975 14.32C62.1615 14.32 61.5322 14.5547 61.0095 15.024C60.4975 15.4933 60.2042 16.144 60.1295 16.976H65.6655ZM70.5474 14.656C70.8034 14.1547 71.166 13.7653 71.6354 13.488C72.1154 13.2107 72.6967 13.072 73.3794 13.072V14.576H72.9954C71.3634 14.576 70.5474 15.4613 70.5474 17.232V22H69.0914V13.232H70.5474V14.656Z" fill="#151515"/>
<defs>
<clipPath id="clip0_162_15101">
<rect width="16.6667" height="16.6667" fill="white" transform="translate(9.66675 7.66602)"/>
</clipPath>
</defs>
</svg>
