<svg width="24" height="24" viewBox="0 0 24 24" fill="none" xmlns="http://www.w3.org/2000/svg">
<g clip-path="url(#clip0_162_13945)">
<path fill-rule="evenodd" clip-rule="evenodd" d="M5.6665 4.49935C5.6665 4.03911 6.0396 3.66602 6.49984 3.66602H21.4998C21.9601 3.66602 22.3332 4.03911 22.3332 4.49935V6.65417C22.3332 7.0962 22.1576 7.52012 21.845 7.83268L16.4998 13.1779V17.8327C16.4998 18.1483 16.3215 18.4369 16.0392 18.578L12.7058 20.2447C12.4475 20.3739 12.1407 20.3601 11.8951 20.2082C11.6494 20.0564 11.4998 19.7882 11.4998 19.4994V13.1779L6.15466 7.83268C5.8421 7.52012 5.6665 7.0962 5.6665 6.65417V4.49935ZM7.33317 5.33268V6.65417L12.9224 12.2434C13.0787 12.3997 13.1665 12.6117 13.1665 12.8327V18.151L14.8332 17.3177V12.8327C14.8332 12.6117 14.921 12.3997 15.0772 12.2434L20.6665 6.65417V5.33268H7.33317Z" fill="#8A8A8A"/>
</g>
<defs>
<clipPath id="clip0_162_13945">
<rect width="16.6667" height="16.6667" fill="white" transform="translate(5.6665 3.66602)"/>
</clipPath>
</defs>
</svg>
